# xmcd
#
# Track frame offsets:
#	150
#	11252
#	34876
#	63008
#	75643
#	83727
#	94915
#	110147
#	123169
#	134191
#	149899
#
# Disc length: 2143 seconds
#
# Revision: 0
# Processed by: cddbd v1.5.2PL0 Copyright (c) Steve Scherf et al.
# Submitted via: audiograbber 1.83.01
#
DISCID=97085d0b
DTITLE=Fats Domino - Attention! Fats Domino!
DYEAR=1900
DGENRE=Rock
TTITLE0=Blueberry Hill
TTITLE1=Domino Twist
TTITLE2=Please Don't Leave Me
TTITLE3=Let The Four Winds Blow
TTITLE4=Whole Lot Of Loving
TTITLE5=I'm Gonna Be A Wheel Someday
TTITLE6=I'm In The Mood For Love
TTITLE7=Jambalaya (On The Bayou)
TTITLE8=Oh! What A Price
TTITLE9=So Long
TTITLE10=Ain't That A Shame
EXTD=
EXTT0=
EXTT1=
EXTT2=
EXTT3=
EXTT4=
EXTT5=
EXTT6=
EXTT7=
EXTT8=
EXTT9=
EXTT10=
PLAYORDER=
